<?xml version="1.0" encoding="utf-8"?>
<!-- Generator: Adobe Illustrator 16.0.0, SVG Export Plug-In . SVG Version: 6.00 Build 0)  -->
<!DOCTYPE svg PUBLIC "-//W3C//DTD SVG 1.1//EN" "http://www.w3.org/Graphics/SVG/1.1/DTD/svg11.dtd">
<svg version="1.1" id="Layer_1" xmlns="http://www.w3.org/2000/svg" xmlns:xlink="http://www.w3.org/1999/xlink" x="0px" y="0px"
	 width="1371.213px" height="191.479px" viewBox="0 0 1371.213 191.479" enable-background="new 0 0 1371.213 191.479"
	 xml:space="preserve">

	 <style>
	 	.test-logo {
		 	fill: #fff;
		}
	 </style>
<g>
	<path class="test-logo" fill="none" d="M343.647,126.705c0,1.43-0.047,2.315,0.007,3.195c0.389,6.384,2.289,12.247,6.207,17.358
		c2.335,3.045,5.395,4.594,9.335,4.212c2.656-0.258,5.291-0.594,7.874-1.279c12.431-3.299,22.864-10.215,32.75-18.112
		c1.848-1.477,3.644-3.02,5.831-4.836c0,1.239-0.038,1.964,0.006,2.685c0.373,6.118,2.183,11.746,5.767,16.76
		c2.529,3.538,5.866,5.293,10.304,4.75c2.48-0.303,4.952-0.606,7.374-1.251c12.428-3.309,22.869-10.211,32.736-18.131
		c2.757-2.212,5.395-4.573,8.414-7.143c-1.204,3.898-2.37,7.344-3.323,10.846c-1.223,4.497-1.433,9.011,0.171,13.513
		c0.692,1.941,1.715,2.785,3.914,2.396c3.49-0.619,6.742-1.83,9.863-3.413c12.587-6.383,23.558-15.011,33.873-24.539
		c0.674-0.623,1.367-1.227,2.408-2.157c-0.855,3.552-1.7,6.511-2.262,9.521c-0.945,5.058-2.277,10.113-1.232,15.326
		c0.735,3.666,2.813,5.252,6.536,5.072c2.418-0.117,4.786-0.585,7.125-1.219c5.158-1.398,9.88-3.828,14.739-6.396
		c1.194,9.908,6.947,16.619,14.569,21.898c9.056,6.273,18.684,7.989,28.941,2.77c8.133-4.139,14.924-9.996,21.186-16.497
		c13.719-14.245,24.754-30.48,34.784-47.438c0.804-1.358,1.749-2.265,3.206-2.903c25.306-11.102,50.494-22.442,73.864-37.375
		c0.255-0.163,0.574-0.226,1.316-0.505c-1.491,4.252-2.902,8.124-4.21,12.031c-6.945,20.758-13.557,41.609-16.774,63.352
		c-0.781,5.28-1.292,10.601-0.24,15.916c0.787,3.982,2.552,5.163,6.503,4.643c4.85-0.639,9.355-2.317,13.707-4.445
		c11.833-5.788,22.259-13.648,32.297-22.066c2.771-2.325,5.473-4.734,8.55-7.402c-0.191,1.057-0.288,1.619-0.395,2.181
		c-1.101,5.806-2.385,11.605-1.702,17.57c0.493,4.314,2.784,6.143,7.087,5.856c3.857-0.257,7.556-1.238,11.129-2.658
		c11.375-4.521,21.061-11.674,30.294-19.526c0.708-0.603,1.274-1.463,2.373-1.66c-0.301,2.772-0.681,5.408-0.847,8.058
		c-0.167,2.651-0.358,5.305-0.095,7.979c0.559,5.674,3.399,8.185,9.102,7.811c3.429-0.226,6.738-1.034,9.962-2.214
		c10.552-3.861,19.58-10.219,28.22-17.212c1.838-1.487,3.637-3.021,5.82-4.839c-0.766,4.562-1.166,8.62-1.241,12.69
		c-0.155,8.432,2.221,13.085,12.196,11.225c5.388-1.005,10.4-2.938,15.19-5.491c13.603-7.25,25.107-17.18,35.759-28.183
		c2.956-3.054,5.823-6.196,8.361-9.606c2.576-3.463,1.803-6.354-2.06-8.008c-0.41,0.487-0.84,0.99-1.26,1.501
		c-9.75,11.867-21.102,21.967-33.848,30.497c-4.36,2.918-8.871,5.623-14.047,6.899c-3.99,0.984-5.319-0.018-5.316-4.067
		c0.004-4.597,1.039-9.083,1.581-13.622c0.769-6.438,3.498-11.615,7.754-16.527c10.636-12.271,20.954-24.833,29.83-38.483
		c4.32-6.643,8.324-13.459,10.301-21.241c1.052-4.142,1.16-8.257-0.821-12.181c-1.612-3.193-4.217-4.81-7.869-4.677
		c-4.115,0.149-7.515,2.004-10.635,4.45c-6.938,5.441-11.912,12.538-16.366,19.996c-11.265,18.859-18.957,39.188-24.512,60.375
		c-0.277,1.058-0.55,2.047-1.415,2.836c-7.774,7.082-15.865,13.747-25.006,19.025c-3.177,1.835-6.443,3.509-10.073,4.261
		c-3.417,0.708-4.688-0.293-4.77-3.776c-0.099-4.268,0.826-8.438,1.299-12.653c0.805-7.164,3.693-13.065,8.539-18.574
		c10.503-11.94,20.525-24.32,29.226-37.686c4.321-6.638,8.343-13.442,10.35-21.219c1.067-4.139,1.229-8.237-0.692-12.19
		c-1.613-3.319-4.254-4.994-8.012-4.842c-4.112,0.167-7.504,2.035-10.62,4.487c-6.927,5.454-11.896,12.552-16.349,20.013
		c-11.256,18.863-18.952,39.19-24.488,60.382c-0.277,1.065-0.629,1.993-1.491,2.782c-7.575,6.93-15.497,13.402-24.389,18.598
		c-3.378,1.974-6.849,3.735-10.744,4.57c-2.091,0.448-2.713-0.265-2.665-2.248c0.156-6.455,1.532-12.701,3.028-18.94
		c1.853-7.727,4.852-14.781,10.504-20.635c3.162-3.273,5.911-6.978,8.147-10.96c-3.335-3.868-7.289-4.697-11.658-2.512
		c-3.144,1.571-5.448,4.089-7.516,6.827c-4.402,5.834-7.392,12.42-10.012,19.189c-0.423,1.094-0.877,2.111-1.762,2.961
		c-9.633,9.25-19.858,17.774-30.943,25.236c-3.937,2.65-7.961,5.188-12.467,6.792c-3.651,1.299-4.494,0.672-4.562-3.15
		c-0.127-7.137,1.197-14.094,2.753-21c5.367-23.827,13.31-46.864,21.556-69.807c0.58-1.611,1.438-2.894,2.711-4.059
		c4.75-4.343,9.03-9.11,12.449-14.596c3.769-6.049,6.249-12.513,6.012-19.768c-0.109-3.355-0.674-6.661-2.622-9.503
		c-2.124-3.1-4.786-3.383-7.604-0.947c-1.524,1.318-2.735,2.909-3.863,4.562c-7.03,10.31-12.385,21.536-16.714,33.14
		c-2.665,7.145-7.074,11.901-13.292,15.934c-20.749,13.456-42.933,24.085-65.46,34.086c-0.318,0.141-0.625,0.204-0.992-0.183
		c0.454-0.916,0.926-1.879,1.407-2.836c6.356-12.65,12.073-25.568,16.374-39.079c2.682-8.426,4.896-16.95,5.236-25.847
		c0.125-3.283-1.003-4.938-4.049-6.116c-2.361-0.914-4.853-1.271-7.352-1.188c-19.3,0.633-37.678,5.21-55.247,13.131
		c-3.348,1.51-6.468,3.429-9.193,5.941c-2.349,2.167-3.536,4.715-3.188,8.002c0.391,3.691,1.382,7.171,2.969,10.514
		c0.503,1.06,0.991,1.495,2.284,1.108c2.332-0.698,3.773-1.436,4.132-4.476c0.745-6.312,5.054-10.565,10.226-13.777
		c12.018-7.462,25.383-10.098,39.307-10.534c2.342-0.073,3.254,1.27,3.159,3.504c-0.204,4.765-1.049,9.432-2.238,14.031
		c-4.987,19.281-13.018,37.356-21.925,55.082c-0.535,1.064-1.366,1.557-2.391,2.011c-8.213,3.638-16.538,7.045-24.428,11.367
		c-4.932,2.702-6.103,6.576-3.671,11.792c7.121-4.379,14.688-7.817,22.517-10.848c-2.523,4.503-5.15,8.838-7.922,13.079
		c-3.236,4.951-6.705,9.741-10.476,14.307c-4.79,5.798-9.876,11.294-16.195,15.479c-3.504,2.321-7.236,4.075-11.573,4.195
		c-11.198,0.312-21.36-7.28-26.333-20.394c6.138-4.493,11.983-9.429,17.51-14.734c4.874-4.678,9.535-9.562,13.658-14.919
		c2.749-3.572,1.975-6.526-1.988-8.122c-8.789,10.964-19.032,20.444-30.417,28.685c-5.667,4.102-11.455,8.081-18.328,9.953
		c-3.587,0.978-4.276,0.31-3.449-3.36c3.696-16.409,8.192-32.559,15.948-47.737c-1.896-1.838-4.178-3.138-6.765-3.898
		c-3.349-0.984-4.88-0.429-6.657,2.617c-1.454,2.491-2.735,5.084-4.127,7.696c-0.88-0.438-1.617-0.819-2.366-1.175
		c-6.314-2.996-12.687-5.83-19.278-8.208c-4.633-1.672-8.215-0.577-11.53,2.763c-3.126,3.148-5.819,6.627-8.414,10.205
		c-11.018,15.194-24.786,27.347-41.011,36.708c-4.84,2.793-9.949,4.982-15.643,5.561c-2.412,0.244-4.051-0.632-5.259-2.536
		c-2.14-3.374-3.495-7.048-3.308-11.078c0.559-12.05,6.247-21.374,15.702-28.504c3.764-2.839,5.042-2.566,8.426,0.625
		c3.027,2.855,5.588,6.127,8.271,9.403c3.114-1.863,5.911-3.931,8.534-6.249c1.657-1.466,1.996-3.129,1.048-5.145
		c-1.552-3.302-3.791-6.042-6.525-8.428c-3.614-3.153-7.682-4.064-12.323-2.841c-7.826,2.062-14.002,6.767-19.813,12.113
		c-4.756,4.375-8.01,10.036-12.373,14.672c-8.476,9.007-18.159,16.665-29.072,22.615c-4.758,2.595-9.688,4.758-15.203,5.346
		c-2.518,0.269-4.213-0.645-5.45-2.646c-2.097-3.395-3.413-7.067-3.226-11.105c0.539-11.674,6.074-20.75,14.994-27.883
		c4.382-3.504,5.677-3.209,9.774,0.771c2.79,2.711,5.128,5.821,7.663,8.764c3.046-1.836,5.7-3.828,8.245-5.984
		c1.944-1.647,2.305-3.485,1.149-5.753c-1.811-3.556-4.307-6.494-7.47-8.92c-3.137-2.404-6.613-2.988-10.39-2.189
		c-3.286,0.694-6.346,1.976-9.238,3.67c-9.019,5.282-16.096,12.583-21.933,21.158c-0.755,1.109-1.542,2.168-2.541,3.064
		c-9.71,8.723-20.186,16.351-31.934,22.118c-4.789,2.351-9.713,4.393-15.119,4.873c-3.184,0.282-4.112-0.269-5.219-3.332
		c-1.561-4.318-1.862-8.726-1.065-13.278c0.307-1.751,0.95-2.55,2.687-2.93c3.328-0.728,6.646-1.563,9.886-2.611
		c7.068-2.287,14.013-4.886,19.587-10.085c2.895-2.7,4.596-5.99,3.988-10.027c-1.015-6.744-4.28-12.182-9.997-16.017
		c-2.207-1.481-4.667-1.609-7.204-1.019c-3.66,0.852-6.765,2.758-9.608,5.12c-7.239,6.016-12.383,13.646-16.777,21.854
		c-0.427,0.798-0.804,1.769-1.49,2.26c-8.368,5.996-10.275,6.136-16.556-0.528c-3.896-4.134-7.037-8.867-10.357-13.454
		c-2.443-3.374-4.822-6.801-7.69-9.834c-0.694-0.734-1.322-1.756-2.652-1.476c-5.641,1.191-9.7,9.526-7.235,14.74
		c0.951,2.012,2.424,3.741,2.855,6.046c2.442,13.051-6.702,29.974-19.052,35.117c-6.681,2.782-9.883,0.951-10.195-6.323
		c-0.469-10.902,1.999-21.322,7.729-30.537c6.027-9.691,11.928-19.432,17.225-29.533c7.149-13.634,14.071-27.378,19.439-41.838
		c1.25-3.366,0.446-4.495-3.166-5.109c-1.754-0.298-3.078,0.454-4.333,1.456c-3.222,2.573-5.77,5.773-8.112,9.117
		c-15.762,22.495-27.815,46.898-37.21,72.656c-0.412,1.129-0.885,2.133-1.788,2.928c-9.913,8.735-20.492,16.497-32.486,22.18
		c-4.526,2.145-9.152,4.008-14.213,4.458c-3.185,0.283-4.109-0.267-5.217-3.335c-1.561-4.318-1.861-8.726-1.064-13.277
		c0.307-1.754,0.955-2.548,2.689-2.928c3.327-0.729,6.647-1.561,9.885-2.613c6.982-2.269,13.847-4.824,19.398-9.921
		c2.994-2.749,4.789-6.057,4.172-10.191c-1.005-6.745-4.279-12.182-9.996-16.017c-2.208-1.48-4.667-1.607-7.204-1.016
		c-3.661,0.852-6.83,2.686-9.597,5.133c-11.845,10.471-19.256,23.652-23.264,38.812c-1.819,6.881-1.341,13.731,1.378,20.325
		c2.182,5.29,5.461,7.245,11.132,6.886c3.921-0.248,7.744-1.052,11.485-2.251c12.544-4.02,23.496-10.912,33.883-18.813
		c2.081-1.583,4.109-3.234,6.471-5.1c-0.235,1.757-0.445,3.059-0.579,4.367c-0.582,5.703-0.348,11.339,1.912,16.696
		c1.903,4.51,4.96,6.36,9.755,6.247c3.545-0.083,6.956-0.862,10.184-2.242c14.158-6.057,24.199-16.464,31.328-29.905
		c0.407-0.767,0.51-1.731,1.409-2.256c3.453,3.298,6.609,7.17,11.198,8.649c4.861,1.566,9.01-1.688,13.539-3.559
		c-0.14,0.754-0.215,1.235-0.319,1.71c-1.291,5.911-1,11.771,0.803,17.518c2.306,7.345,6.339,9.759,13.968,8.768
		c7.441-0.966,14.359-3.487,21.041-6.772C326.227,139.804,334.896,133.778,343.647,126.705z M80.647,101.379
		c21.3-9.908,39.93-22.97,55.522-40.169c7.219-7.963,13.152-16.769,15.717-27.441c4.491-18.691-8.104-34.135-27.273-33.328
		c-10.639,0.448-19.962,4.808-28.822,10.294C82.42,19.014,71.275,29.863,60.713,41.371c-0.411,0.448-0.634,1.199-1.572,1.055
		c0.074-2.685-0.176-5.331-0.523-7.976c-1.299-9.891-6.926-16.509-16.119-18.309c-10.195-1.996-19.662,0.32-28.456,5.652
		c-1.208,0.732-2.287,1.67-3.073,2.89c-1.117,1.734-1.282,3.385,0.483,5.065c3.639-1.723,7.286-3.501,11.26-4.474
		c10.325-2.527,17.475,1.577,20.406,11.809c0.206,0.718,0.372,1.449,0.529,2.18c1.436,6.679,1.106,13.402,0.567,20.142
		c-0.118,1.471-0.508,2.676-1.395,3.878c-7.07,9.59-13.628,19.524-19.552,29.861c-8.704,15.188-16.659,30.726-21.286,47.729
		c-1.469,5.397-2.666,10.886-1.538,16.51c1.036,5.169,4.334,7.252,9.481,6.333c3.367-0.602,6.286-2.127,8.938-4.209
		c6.139-4.821,10.586-11.054,14.353-17.762c14.242-25.362,21.455-52.895,24.924-81.562c0.177-1.465,0.072-2.963,1.13-4.244
		c9.892-11.98,20.386-23.354,33.162-32.357c7.135-5.028,14.729-9.106,23.664-9.928c8.987-0.826,16.168,4.151,18.584,12.842
		c1.584,5.697,1.018,11.202-1.279,16.582c-3.637,8.521-9.539,15.391-16.119,21.704c-14.51,13.92-31.23,24.559-49.49,32.832
		c-1.867,0.847-2.527,1.775-2.391,3.887c0.717,11.051,3.236,21.714,6.757,32.15c4.494,13.318,10.219,26.029,19.316,36.949
		c3.713,4.458,8.002,8.209,13.369,10.632c12.425,5.61,27.568-4.15,31.207-11.771c0.389-0.813,0.666-1.718,0.801-2.608
		c0.345-2.276-0.529-3.967-2.574-5.131c-0.497,0.475-0.858,0.812-1.211,1.157c-5.778,5.648-12.322,6.415-19.33,2.234
		c-3.547-2.116-6.493-4.931-9.112-8.089c-9.004-10.854-14.906-23.377-19.543-36.564C82.899,114.254,81.102,107.949,80.647,101.379z
		 M1306.857,148.144c-0.661-2.918-1.058-5.487-1.853-7.927c-0.691-2.123-0.025-3.402,1.604-4.67
		c2.956-2.302,5.831-4.712,8.677-7.149c3.608-3.089,7.182-6.231,9.732-10.318c2.565-4.111,2.364-6.987-0.755-10.688
		c-2.652-3.145-5.968-5.547-9.174-8.071c-2.669-2.101-5.557-3.946-7.833-6.511c1.751-2.941,3.649-5.687,4.986-8.752
		c2.228-5.104,0.689-7.415-5.019-7.588c-1.701-0.052-3.329,0.247-4.858,0.946c-5.752,2.632-9.152,7.311-11.115,13.131
		c-1.61,4.779-1.774,9.366,2.66,12.808c-0.316,0.507-0.418,0.738-0.58,0.918c-11.22,12.456-23.798,23.277-38.358,31.682
		c-2.446,1.412-5.034,2.543-7.811,3.251c-2.003,0.512-2.691-0.22-2.446-2.091c0.195-1.48,0.398-2.979,0.809-4.41
		c3.093-10.789,6.267-21.556,9.35-32.348c0.938-3.278,1.758-6.608,1.801-10.046c0.04-3.136-1.342-4.433-4.433-4.287
		c-2.856,0.135-5.578,0.91-8.224,1.938c-11.505,4.47-21.311,11.567-30.435,19.718c-3.811,3.405-7.221,7.204-10.955,11.479
		c1.913-8.535,4.255-16.109,10.248-22.154c3.249-3.278,5.998-7.082,8.28-11.096c-4.26-4.35-8.58-4.771-13.312-1.455
		c-1.932,1.354-3.536,3.036-4.968,4.887c-4.944,6.396-8.253,13.654-10.938,21.204c-4.032,11.338-6.975,22.917-7.267,35.042
		c-0.031,1.314,0.136,2.521,1.188,3.396c3.41,2.836,7.41,3.283,11.668,3.074c-0.066-4.886,0.756-9.397,1.358-13.934
		c0.214-1.61,0.848-2.994,1.757-4.329c2.826-4.146,6.107-7.915,9.606-11.481c7.359-7.505,15.075-14.607,24.101-20.117
		c1.432-0.874,2.893-1.869,4.7-1.751c0.348,1.049,0.036,1.832-0.173,2.63c-2.423,9.254-5.479,18.34-7.467,27.707
		c-1.225,5.771-2.709,11.553-1.891,17.53c0.542,3.957,1.883,4.944,5.899,4.629c6.931-0.544,13.295-2.948,19.355-6.196
		c12.691-6.802,23.449-16.085,33.385-26.371c3.866-4.001,7.521-8.208,11.398-12.463c3.318,2.568,6.718,4.985,9.862,7.698
		c2.764,2.384,2.726,4.112,0.227,6.741c-1.258,1.322-2.606,2.589-4.057,3.691c-4.642,3.525-9.326,6.994-14.044,10.418
		c-1.71,1.242-2.2,2.68-1.663,4.738c1.05,4.022,1.835,8.113,2.902,12.131c0.438,1.652,0.15,2.464-1.443,3.292
		c-5.166,2.686-10.245,5.542-15.311,8.415c-4.126,2.338-8.276,4.662-11.891,7.781c-1.331,1.149-2.501,2.393-2.253,4.443
		c1.256,10.374,13.308,17.306,22.708,12.839c8.965-4.259,15.821-10.954,21.051-19.334c2.318-3.714,3.436-7.745,2.652-12.146
		c-0.289-1.624,0.251-2.508,1.745-3.337c12.099-6.714,23.748-14.129,34.611-22.732c9.173-7.264,17.648-15.233,24.829-24.513
		c2.795-3.612,2.228-6.28-1.891-8.262C1351.207,120.505,1329.569,134.731,1306.857,148.144z M1024.499,107.573
		c3.151-1.868,5.87-3.909,8.455-6.145c1.743-1.508,2.153-3.227,1.137-5.341c-1.617-3.364-3.915-6.162-6.753-8.561
		c-3.513-2.97-7.454-3.826-11.901-2.669c-1.861,0.483-3.709,1.004-5.405,1.888c-14.383,7.495-24.751,18.765-30.7,33.811
		c-3.749,9.481-1.228,18.335,4.376,26.431c2.361,3.412,5.713,4.951,9.939,4.457c2.482-0.29,4.957-0.587,7.378-1.228
		c12.513-3.316,23.012-10.275,32.951-18.239c1.649-1.321,3.267-2.684,5.283-4.344c-0.181,1.469-0.299,2.369-0.402,3.272
		c-1.148,9.95,3.841,17.908,12.57,19.982c4.048,0.962,8.101,0.784,12.117-0.232c10.642-2.695,19.014-8.943,26.294-16.876
		c3.877-4.226,6.994-8.983,9.585-14.271c2.121,2.137,4.058,4.071,6.193,5.805c2.264,1.837,4.746,2.421,7.478,1.529
		c10.976-3.583,19.646-10.39,26.499-19.519c2.359-3.143,1.274-5.873-2.452-7.481c-0.409,0.487-0.825,1-1.26,1.495
		c-3.818,4.357-8.194,8.057-13.214,10.947c-4.586,2.64-6.451,2.32-10.077-1.464c-1.794-1.871-3.329-3.952-4.719-6.129
		c-4.389-6.875-8.614-13.857-13.132-20.646c-3.453-5.186-4.556-5.171-9.09-0.792c-0.731,0.706-1.349,1.257-2.549,1.129
		c-5.925-0.632-11.407,0.925-16.501,3.838c-9.239,5.281-15.821,13.112-21.002,22.249c-0.489,0.864-0.944,1.81-1.641,2.485
		c-8.51,8.273-17.633,15.771-28.116,21.441c-4.766,2.578-9.7,4.745-15.229,5.257c-2.302,0.214-3.885-0.606-5.072-2.416
		c-2.148-3.272-3.541-6.872-3.399-10.796c0.454-12.548,6.372-22.168,16.393-29.38c3.115-2.242,4.37-1.981,7.244,0.644
		C1018.983,100.636,1021.708,104.004,1024.499,107.573z M799.292,38.451c-3.176,9.449-7.502,18.204-11.798,26.919
		c4.116,3.033,6.646,2.937,9.976-0.423c3.702-3.735,6.827-7.932,9.299-12.575c4.236-7.96,5.191-10.384-6.273-13.843
		C800.19,38.438,799.843,38.482,799.292,38.451z M1142.551,135.511c-3.883,2.479-6.155,5.832-7.368,9.96
		c-0.433,1.473-0.084,2.742,0.98,3.898c2.628,2.853,5.621,5.184,9.231,6.653c4.913,2,10.232,0.021,12.615-4.321
		C1152.81,146.254,1147.702,140.905,1142.551,135.511z M934.521,135.503c-3.821,2.485-6.003,5.729-7.278,9.632
		c-0.529,1.619-0.225,3.059,1.005,4.357c2.312,2.442,4.881,4.521,7.909,5.994c5.663,2.756,10.657,1.285,13.903-3.819
		C944.885,146.283,939.763,140.956,934.521,135.503z"/>
	<path fill-rule="evenodd" clip-rule="evenodd" d="M343.647,126.705c-8.75,7.073-17.42,13.099-26.96,17.79
		c-6.682,3.285-13.6,5.807-21.041,6.772c-7.629,0.991-11.662-1.423-13.968-8.768c-1.804-5.746-2.094-11.606-0.803-17.518
		c0.104-0.475,0.179-0.956,0.319-1.71c-4.529,1.87-8.678,5.125-13.539,3.559c-4.589-1.479-7.745-5.352-11.198-8.649
		c-0.899,0.524-1.002,1.489-1.409,2.256c-7.129,13.441-17.169,23.849-31.328,29.905c-3.228,1.38-6.638,2.159-10.184,2.242
		c-4.795,0.113-7.853-1.737-9.755-6.247c-2.26-5.357-2.494-10.993-1.912-16.696c0.133-1.309,0.343-2.61,0.579-4.367
		c-2.362,1.865-4.39,3.517-6.471,5.1c-10.387,7.901-21.338,14.794-33.883,18.813c-3.741,1.199-7.564,2.003-11.485,2.251
		c-5.671,0.359-8.95-1.596-11.132-6.886c-2.719-6.594-3.198-13.444-1.378-20.325c4.007-15.16,11.419-28.342,23.264-38.812
		c2.767-2.447,5.937-4.281,9.597-5.133c2.537-0.592,4.997-0.465,7.204,1.016c5.717,3.835,8.99,9.271,9.996,16.017
		c0.616,4.135-1.178,7.442-4.172,10.191c-5.551,5.097-12.416,7.652-19.398,9.921c-3.238,1.053-6.558,1.885-9.885,2.613
		c-1.734,0.38-2.382,1.174-2.689,2.928c-0.797,4.552-0.497,8.959,1.064,13.277c1.108,3.068,2.032,3.618,5.217,3.335
		c5.061-0.45,9.687-2.313,14.213-4.458c11.994-5.683,22.573-13.444,32.486-22.18c0.903-0.795,1.376-1.799,1.788-2.928
		c9.395-25.758,21.448-50.161,37.21-72.656c2.342-3.344,4.89-6.544,8.112-9.117c1.254-1.002,2.578-1.754,4.333-1.456
		c3.612,0.614,4.416,1.743,3.166,5.109c-5.368,14.46-12.29,28.204-19.439,41.838c-5.297,10.102-11.198,19.842-17.225,29.533
		c-5.73,9.215-8.198,19.635-7.729,30.537c0.312,7.274,3.514,9.105,10.195,6.323c12.35-5.144,21.494-22.066,19.052-35.117
		c-0.431-2.305-1.904-4.034-2.855-6.046c-2.465-5.214,1.595-13.549,7.235-14.74c1.331-0.28,1.958,0.741,2.652,1.476
		c2.869,3.033,5.248,6.46,7.69,9.834c3.32,4.587,6.461,9.32,10.357,13.454c6.28,6.664,8.188,6.524,16.556,0.528
		c0.687-0.491,1.063-1.462,1.49-2.26c4.394-8.207,9.538-15.838,16.777-21.854c2.843-2.362,5.948-4.269,9.608-5.12
		c2.538-0.591,4.997-0.463,7.204,1.019c5.716,3.835,8.981,9.272,9.997,16.017c0.607,4.037-1.094,7.327-3.988,10.027
		c-5.574,5.199-12.519,7.798-19.587,10.085c-3.24,1.048-6.558,1.884-9.886,2.611c-1.737,0.38-2.38,1.179-2.687,2.93
		c-0.797,4.553-0.496,8.96,1.065,13.278c1.107,3.063,2.035,3.614,5.219,3.332c5.406-0.48,10.33-2.522,15.119-4.873
		c11.748-5.768,22.224-13.396,31.934-22.118c0.999-0.896,1.786-1.955,2.541-3.064c5.837-8.575,12.915-15.876,21.933-21.158
		c2.893-1.694,5.953-2.976,9.238-3.67c3.777-0.799,7.253-0.215,10.39,2.189c3.164,2.426,5.659,5.364,7.47,8.92
		c1.155,2.268,0.795,4.105-1.149,5.753c-2.545,2.156-5.199,4.148-8.245,5.984c-2.535-2.942-4.874-6.053-7.663-8.764
		c-4.097-3.979-5.392-4.274-9.774-0.771c-8.92,7.133-14.455,16.209-14.994,27.883c-0.187,4.038,1.129,7.711,3.226,11.105
		c1.236,2.002,2.932,2.915,5.45,2.646c5.515-0.588,10.445-2.751,15.203-5.346c10.914-5.95,20.597-13.608,29.072-22.615
		c4.363-4.636,7.617-10.297,12.373-14.672c5.811-5.347,11.987-10.051,19.813-12.113c4.641-1.224,8.709-0.312,12.323,2.841
		c2.734,2.386,4.973,5.126,6.525,8.428c0.948,2.016,0.609,3.679-1.048,5.145c-2.623,2.318-5.42,4.386-8.534,6.249
		c-2.683-3.276-5.243-6.548-8.271-9.403c-3.384-3.191-4.662-3.464-8.426-0.625c-9.455,7.13-15.143,16.454-15.702,28.504
		c-0.187,4.03,1.168,7.704,3.308,11.078c1.208,1.904,2.848,2.78,5.259,2.536c5.693-0.578,10.803-2.768,15.643-5.561
		c16.225-9.361,29.993-21.514,41.011-36.708c2.595-3.578,5.288-7.057,8.414-10.205c3.315-3.34,6.897-4.435,11.53-2.763
		c6.591,2.378,12.964,5.212,19.278,8.208c0.749,0.355,1.485,0.737,2.366,1.175c1.393-2.612,2.674-5.205,4.127-7.696
		c1.777-3.046,3.308-3.602,6.657-2.617c2.586,0.761,4.869,2.061,6.765,3.898c-7.756,15.179-12.252,31.328-15.948,47.737
		c-0.827,3.67-0.139,4.338,3.449,3.36c6.873-1.872,12.661-5.852,18.328-9.953c11.385-8.24,21.629-17.721,30.417-28.685
		c3.962,1.596,4.737,4.55,1.988,8.122c-4.123,5.357-8.784,10.241-13.658,14.919c-5.527,5.306-11.373,10.241-17.51,14.734
		c4.973,13.113,15.135,20.705,26.333,20.394c4.337-0.12,8.069-1.874,11.573-4.195c6.319-4.186,11.406-9.682,16.195-15.479
		c3.771-4.565,7.24-9.355,10.476-14.307c2.771-4.241,5.399-8.576,7.922-13.079c-7.829,3.03-15.396,6.469-22.517,10.848
		c-2.432-5.216-1.261-9.09,3.671-11.792c7.89-4.322,16.215-7.729,24.428-11.367c1.024-0.454,1.855-0.946,2.391-2.011
		c8.907-17.726,16.938-35.801,21.925-55.082c1.189-4.6,2.034-9.267,2.238-14.031c0.095-2.234-0.817-3.577-3.159-3.504
		c-13.924,0.437-27.289,3.072-39.307,10.534c-5.172,3.212-9.48,7.465-10.226,13.777c-0.359,3.04-1.801,3.777-4.132,4.476
		c-1.293,0.387-1.781-0.049-2.284-1.108c-1.587-3.343-2.579-6.822-2.969-10.514c-0.348-3.287,0.839-5.835,3.188-8.002
		c2.725-2.513,5.845-4.432,9.193-5.941c17.568-7.921,35.947-12.498,55.247-13.131c2.499-0.082,4.99,0.274,7.352,1.188
		c3.046,1.179,4.174,2.833,4.049,6.116c-0.341,8.896-2.555,17.421-5.236,25.847c-4.301,13.511-10.018,26.429-16.374,39.079
		c-0.481,0.957-0.953,1.92-1.407,2.836c0.367,0.387,0.674,0.323,0.992,0.183c22.527-10.001,44.711-20.63,65.46-34.086
		c6.218-4.032,10.627-8.789,13.292-15.934c4.329-11.604,9.684-22.83,16.714-33.14c1.128-1.653,2.339-3.244,3.863-4.562
		c2.817-2.436,5.479-2.152,7.604,0.947c1.948,2.842,2.513,6.147,2.622,9.503c0.237,7.255-2.243,13.719-6.012,19.768
		c-3.419,5.485-7.699,10.253-12.449,14.596c-1.272,1.165-2.131,2.447-2.711,4.059c-8.246,22.942-16.188,45.979-21.556,69.807
		c-1.556,6.906-2.88,13.863-2.753,21c0.068,3.822,0.911,4.449,4.562,3.15c4.506-1.604,8.53-4.142,12.467-6.792
		c11.085-7.462,21.311-15.986,30.943-25.236c0.885-0.85,1.339-1.867,1.762-2.961c2.62-6.77,5.609-13.355,10.012-19.189
		c2.067-2.738,4.372-5.256,7.516-6.827c4.369-2.186,8.323-1.356,11.658,2.512c-2.236,3.982-4.985,7.687-8.147,10.96
		c-5.652,5.854-8.651,12.908-10.504,20.635c-1.496,6.239-2.872,12.485-3.028,18.94c-0.048,1.983,0.574,2.696,2.665,2.248
		c3.896-0.835,7.366-2.597,10.744-4.57c8.892-5.195,16.813-11.668,24.389-18.598c0.862-0.789,1.214-1.717,1.491-2.782
		c5.536-21.191,13.232-41.519,24.488-60.382c4.452-7.461,9.422-14.559,16.349-20.013c3.116-2.452,6.508-4.32,10.62-4.487
		c3.758-0.152,6.398,1.522,8.012,4.842c1.921,3.953,1.76,8.052,0.692,12.19c-2.007,7.776-6.028,14.581-10.35,21.219
		c-8.7,13.365-18.723,25.745-29.226,37.686c-4.846,5.509-7.734,11.41-8.539,18.574c-0.473,4.215-1.397,8.386-1.299,12.653
		c0.081,3.483,1.353,4.484,4.77,3.776c3.63-0.752,6.896-2.426,10.073-4.261c9.141-5.278,17.231-11.943,25.006-19.025
		c0.865-0.789,1.138-1.778,1.415-2.836c5.555-21.187,13.247-41.516,24.512-60.375c4.454-7.458,9.428-14.555,16.366-19.996
		c3.12-2.446,6.52-4.301,10.635-4.45c3.652-0.133,6.257,1.483,7.869,4.677c1.981,3.924,1.873,8.039,0.821,12.181
		c-1.977,7.782-5.98,14.599-10.301,21.241c-8.876,13.65-19.194,26.212-29.83,38.483c-4.256,4.912-6.985,10.089-7.754,16.527
		c-0.542,4.539-1.577,9.025-1.581,13.622c-0.003,4.05,1.326,5.052,5.316,4.067c5.176-1.276,9.687-3.981,14.047-6.899
		c12.746-8.53,24.098-18.63,33.848-30.497c0.42-0.511,0.85-1.014,1.26-1.501c3.862,1.654,4.636,4.545,2.06,8.008
		c-2.538,3.41-5.405,6.553-8.361,9.606c-10.651,11.003-22.156,20.933-35.759,28.183c-4.79,2.554-9.803,4.486-15.19,5.491
		c-9.976,1.86-12.352-2.793-12.196-11.225c0.075-4.07,0.476-8.129,1.241-12.69c-2.184,1.817-3.982,3.352-5.82,4.839
		c-8.64,6.993-17.668,13.351-28.22,17.212c-3.224,1.18-6.533,1.988-9.962,2.214c-5.702,0.374-8.543-2.137-9.102-7.811
		c-0.264-2.674-0.072-5.327,0.095-7.979c0.166-2.649,0.546-5.285,0.847-8.058c-1.099,0.197-1.665,1.058-2.373,1.66
		c-9.233,7.853-18.919,15.005-30.294,19.526c-3.573,1.42-7.271,2.401-11.129,2.658c-4.303,0.286-6.594-1.542-7.087-5.856
		c-0.683-5.965,0.602-11.765,1.702-17.57c0.106-0.562,0.203-1.124,0.395-2.181c-3.077,2.668-5.778,5.077-8.55,7.402
		c-10.038,8.418-20.464,16.278-32.297,22.066c-4.352,2.128-8.857,3.807-13.707,4.445c-3.951,0.521-5.716-0.66-6.503-4.643
		c-1.052-5.315-0.541-10.636,0.24-15.916c3.218-21.742,9.829-42.594,16.774-63.352c1.308-3.907,2.719-7.779,4.21-12.031
		c-0.742,0.279-1.062,0.342-1.316,0.505c-23.37,14.933-48.559,26.273-73.864,37.375c-1.457,0.639-2.402,1.545-3.206,2.903
		c-10.03,16.957-21.065,33.192-34.784,47.438c-6.261,6.501-13.052,12.358-21.186,16.497c-10.258,5.22-19.886,3.504-28.941-2.77
		c-7.622-5.279-13.375-11.99-14.569-21.898c-4.859,2.567-9.581,4.997-14.739,6.396c-2.339,0.634-4.707,1.102-7.125,1.219
		c-3.723,0.18-5.801-1.406-6.536-5.072c-1.045-5.213,0.287-10.269,1.232-15.326c0.562-3.011,1.407-5.97,2.262-9.521
		c-1.041,0.931-1.734,1.534-2.408,2.157c-10.315,9.528-21.285,18.156-33.873,24.539c-3.121,1.583-6.373,2.794-9.863,3.413
		c-2.199,0.39-3.222-0.454-3.914-2.396c-1.604-4.502-1.394-9.016-0.171-13.513c0.953-3.502,2.119-6.947,3.323-10.846
		c-3.019,2.569-5.657,4.931-8.414,7.143c-9.867,7.92-20.308,14.822-32.736,18.131c-2.421,0.645-4.894,0.948-7.374,1.251
		c-4.438,0.543-7.774-1.212-10.304-4.75c-3.583-5.014-5.394-10.642-5.767-16.76c-0.044-0.721-0.006-1.445-0.006-2.685
		c-2.187,1.816-3.982,3.359-5.831,4.836c-9.886,7.897-20.318,14.813-32.75,18.112c-2.583,0.686-5.218,1.021-7.874,1.279
		c-3.94,0.382-7-1.167-9.335-4.212c-3.918-5.111-5.818-10.975-6.207-17.358C343.6,129.021,343.647,128.135,343.647,126.705z
		 M479.974,138.298c16.257-6.541,28.17-18.177,40.328-29.946c-6.409-4.146-12.848-7.04-19.406-9.678
		c-5.92-2.382-6.542-2.228-9.616,3.349c-5.085,9.223-8.617,19.065-11.141,29.274C479.646,133.289,479.052,135.307,479.974,138.298z
		 M831.072,94.536c1.694-2.243,3.414-4.467,5.078-6.731c6.113-8.319,12.141-16.692,16.2-26.278
		c1.862-4.397,3.126-8.943,3.296-13.741c0.05-1.388,0.261-3.112-1.275-3.724c-1.519-0.604-2.603,0.749-3.582,1.759
		c-1.754,1.809-3.024,3.963-4.219,6.159c-3.865,7.108-6.735,14.641-9.45,22.239C834.75,80.852,832.592,87.548,831.072,94.536z
		 M883.145,94.44c1.699-2.248,3.431-4.473,5.092-6.748c6.576-9.01,13.145-18.025,17.065-28.619c1.336-3.611,2.196-7.324,2.34-11.179
		c0.052-1.394,0.3-3.129-1.173-3.787c-1.637-0.729-2.734,0.767-3.775,1.814c-1.418,1.428-2.497,3.126-3.456,4.875
		C891.719,64.519,887.228,79.387,883.145,94.44z M297.962,112.049c4.8-0.68,9.158-1.881,13.346-3.653
		c6.843-2.896,7.75-6.246,3.451-12.314c-0.192-0.271-0.388-0.542-0.6-0.799c-3.318-4.027-5.625-4.045-8.655,0.176
		C301.978,100.372,299.94,105.995,297.962,112.049z M154.918,112.189c2.136-0.469,3.749-0.793,5.346-1.179
		c2.75-0.665,5.453-1.491,8.053-2.611c6.811-2.934,7.73-6.268,3.428-12.329c-0.192-0.271-0.389-0.541-0.6-0.798
		c-3.321-4.022-5.624-4.034-8.655,0.196C158.97,100.383,156.923,105.998,154.918,112.189z"/>
	<path fill-rule="evenodd" clip-rule="evenodd" d="M80.647,101.379c0.455,6.57,2.252,12.875,4.435,19.081
		c4.637,13.188,10.54,25.71,19.543,36.564c2.619,3.158,5.565,5.973,9.112,8.089c7.008,4.181,13.552,3.414,19.33-2.234
		c0.353-0.345,0.714-0.683,1.211-1.157c2.045,1.164,2.919,2.854,2.574,5.131c-0.135,0.891-0.413,1.795-0.801,2.608
		c-3.639,7.621-18.782,17.382-31.207,11.771c-5.367-2.423-9.656-6.174-13.369-10.632c-9.097-10.92-14.822-23.631-19.316-36.949
		c-3.521-10.437-6.04-21.1-6.757-32.15c-0.137-2.111,0.523-3.04,2.391-3.887c18.26-8.273,34.98-18.912,49.49-32.832
		c6.581-6.313,12.482-13.184,16.119-21.704c2.296-5.38,2.863-10.885,1.279-16.582c-2.416-8.69-9.597-13.668-18.584-12.842
		c-8.935,0.821-16.529,4.899-23.664,9.928c-12.775,9.003-23.27,20.377-33.162,32.357c-1.058,1.281-0.953,2.779-1.13,4.244
		c-3.469,28.667-10.682,56.199-24.924,81.562c-3.766,6.708-8.214,12.94-14.353,17.762c-2.651,2.082-5.57,3.607-8.938,4.209
		c-5.147,0.919-8.445-1.164-9.481-6.333c-1.128-5.624,0.069-11.112,1.538-16.51c4.627-17.003,12.582-32.541,21.286-47.729
		c5.924-10.337,12.481-20.271,19.552-29.861c0.886-1.202,1.277-2.407,1.395-3.878c0.539-6.739,0.869-13.463-0.567-20.142
		c-0.157-0.73-0.324-1.462-0.529-2.18c-2.931-10.231-10.081-14.336-20.406-11.809c-3.974,0.973-7.622,2.751-11.26,4.474
		c-1.766-1.681-1.6-3.331-0.483-5.065c0.786-1.22,1.865-2.157,3.073-2.89c8.794-5.332,18.261-7.648,28.456-5.652
		c9.193,1.8,14.82,8.418,16.119,18.309c0.348,2.645,0.597,5.291,0.523,7.976c0.938,0.145,1.162-0.606,1.572-1.055
		C71.275,29.863,82.42,19.014,95.791,10.734c8.859-5.486,18.183-9.846,28.822-10.294c19.169-0.807,31.765,14.637,27.273,33.328
		c-2.565,10.673-8.499,19.479-15.717,27.441C120.577,78.409,101.947,91.471,80.647,101.379z M40.203,81.561
		c-1.658,2.553-3.356,5.079-4.965,7.661c-8.676,13.924-16.771,28.153-22.417,43.628c-1.54,4.219-2.92,8.513-2.76,13.105
		c0.057,1.653,0.408,3.192,2.191,3.844c1.723,0.629,2.866-0.448,3.911-1.544c2.559-2.683,4.311-5.913,5.929-9.197
		c7.458-15.143,12.437-31.157,16.513-47.478C39.413,88.339,40.346,85.107,40.203,81.561z"/>
	<path fill-rule="evenodd" clip-rule="evenodd" d="M1306.857,148.144c22.712-13.412,44.35-27.639,60.737-48.367
		c4.118,1.981,4.686,4.649,1.891,8.262c-7.181,9.279-15.656,17.249-24.829,24.513c-10.863,8.604-22.513,16.019-34.611,22.732
		c-1.494,0.829-2.034,1.713-1.745,3.337c0.783,4.4-0.334,8.432-2.652,12.146c-5.229,8.38-12.086,15.075-21.051,19.334
		c-9.4,4.467-21.452-2.465-22.708-12.839c-0.248-2.051,0.922-3.294,2.253-4.443c3.614-3.119,7.765-5.443,11.891-7.781
		c5.065-2.873,10.145-5.729,15.311-8.415c1.594-0.828,1.881-1.64,1.443-3.292c-1.067-4.018-1.853-8.108-2.902-12.131
		c-0.537-2.059-0.047-3.496,1.663-4.738c4.718-3.424,9.402-6.893,14.044-10.418c1.45-1.103,2.799-2.369,4.057-3.691
		c2.499-2.629,2.537-4.357-0.227-6.741c-3.145-2.713-6.544-5.13-9.862-7.698c-3.878,4.255-7.532,8.462-11.398,12.463
		c-9.936,10.286-20.693,19.569-33.385,26.371c-6.061,3.248-12.425,5.652-19.355,6.196c-4.017,0.315-5.357-0.672-5.899-4.629
		c-0.818-5.978,0.666-11.76,1.891-17.53c1.988-9.367,5.044-18.453,7.467-27.707c0.209-0.798,0.521-1.581,0.173-2.63
		c-1.808-0.118-3.269,0.877-4.7,1.751c-9.025,5.51-16.741,12.612-24.101,20.117c-3.499,3.566-6.78,7.335-9.606,11.481
		c-0.909,1.335-1.543,2.719-1.757,4.329c-0.603,4.536-1.425,9.048-1.358,13.934c-4.258,0.209-8.258-0.238-11.668-3.074
		c-1.052-0.875-1.219-2.082-1.188-3.396c0.292-12.125,3.234-23.704,7.267-35.042c2.685-7.55,5.993-14.809,10.938-21.204
		c1.432-1.851,3.036-3.533,4.968-4.887c4.732-3.315,9.053-2.895,13.312,1.455c-2.282,4.014-5.031,7.817-8.28,11.096
		c-5.993,6.045-8.335,13.619-10.248,22.154c3.734-4.275,7.145-8.074,10.955-11.479c9.124-8.15,18.93-15.248,30.435-19.718
		c2.646-1.028,5.367-1.804,8.224-1.938c3.091-0.146,4.473,1.151,4.433,4.287c-0.043,3.438-0.863,6.768-1.801,10.046
		c-3.083,10.792-6.257,21.559-9.35,32.348c-0.41,1.431-0.613,2.93-0.809,4.41c-0.245,1.871,0.443,2.603,2.446,2.091
		c2.776-0.708,5.364-1.839,7.811-3.251c14.561-8.404,27.139-19.226,38.358-31.682c0.162-0.18,0.264-0.411,0.58-0.918
		c-4.435-3.441-4.271-8.028-2.66-12.808c1.963-5.82,5.363-10.499,11.115-13.131c1.529-0.699,3.157-0.998,4.858-0.946
		c5.708,0.173,7.246,2.483,5.019,7.588c-1.337,3.065-3.235,5.811-4.986,8.752c2.276,2.564,5.164,4.41,7.833,6.511
		c3.206,2.524,6.521,4.927,9.174,8.071c3.119,3.7,3.32,6.576,0.755,10.688c-2.551,4.087-6.124,7.229-9.732,10.318
		c-2.846,2.438-5.721,4.848-8.677,7.149c-1.63,1.268-2.296,2.547-1.604,4.67C1305.799,142.656,1306.196,145.226,1306.857,148.144z
		 M1294.444,163.886c-2.464,1.276-4.671,2.4-6.859,3.559c-3.82,2.022-7.712,3.926-11.277,6.39c-2.422,1.674-2.578,2.759-0.916,5.156
		c2.429,3.503,6.154,4.334,9.759,2.026c3.74-2.395,6.365-5.801,8.341-9.736C1294.607,169.058,1295.016,166.733,1294.444,163.886z"/>
	<path fill-rule="evenodd" clip-rule="evenodd" d="M1024.499,107.573c-2.791-3.569-5.516-6.938-8.722-9.866
		c-2.874-2.625-4.129-2.886-7.244-0.644c-10.021,7.212-15.938,16.832-16.393,29.38c-0.142,3.924,1.251,7.523,3.399,10.796
		c1.188,1.81,2.771,2.63,5.072,2.416c5.528-0.512,10.463-2.679,15.229-5.257c10.483-5.671,19.606-13.168,28.116-21.441
		c0.696-0.676,1.151-1.621,1.641-2.485c5.181-9.137,11.763-16.968,21.002-22.249c5.094-2.913,10.576-4.47,16.501-3.838
		c1.2,0.128,1.817-0.423,2.549-1.129c4.534-4.379,5.637-4.394,9.09,0.792c4.518,6.788,8.743,13.771,13.132,20.646
		c1.39,2.177,2.925,4.258,4.719,6.129c3.626,3.784,5.491,4.104,10.077,1.464c5.02-2.891,9.396-6.59,13.214-10.947
		c0.435-0.495,0.851-1.008,1.26-1.495c3.727,1.608,4.812,4.339,2.452,7.481c-6.853,9.129-15.523,15.936-26.499,19.519
		c-2.731,0.892-5.214,0.308-7.478-1.529c-2.136-1.733-4.072-3.668-6.193-5.805c-2.591,5.287-5.708,10.045-9.585,14.271
		c-7.28,7.933-15.652,14.181-26.294,16.876c-4.017,1.017-8.069,1.194-12.117,0.232c-8.729-2.074-13.719-10.032-12.57-19.982
		c0.104-0.903,0.222-1.804,0.402-3.272c-2.017,1.66-3.634,3.022-5.283,4.344c-9.939,7.964-20.438,14.923-32.951,18.239
		c-2.421,0.641-4.896,0.938-7.378,1.228c-4.227,0.494-7.578-1.045-9.939-4.457c-5.604-8.096-8.125-16.949-4.376-26.431
		c5.949-15.046,16.317-26.315,30.7-33.811c1.696-0.884,3.544-1.404,5.405-1.888c4.447-1.157,8.389-0.301,11.901,2.669
		c2.838,2.398,5.136,5.196,6.753,8.561c1.017,2.114,0.606,3.833-1.137,5.341C1030.369,103.664,1027.65,105.705,1024.499,107.573z
		 M1081.018,92.029c-4.91,0.102-8.868,2.084-12.288,5.169c-7.243,6.534-11.322,14.895-13.563,24.233
		c-1.177,4.899-1.773,9.862-0.142,14.79c1.375,4.155,4.062,5.786,8.39,5.379c2.47-0.231,4.71-1.102,6.744-2.421
		c9.354-6.065,15.371-14.622,18.311-25.298c1.04-3.777,0.806-7.416-1.918-10.814C1084.015,99.903,1082.065,96.265,1081.018,92.029z"
		/>
	<path fill-rule="evenodd" clip-rule="evenodd" d="M799.292,38.451c0.552,0.031,0.898-0.014,1.203,0.078
		c11.465,3.459,10.51,5.883,6.273,13.843c-2.472,4.644-5.597,8.84-9.299,12.575c-3.329,3.359-5.859,3.456-9.976,0.423
		C791.79,56.655,796.116,47.9,799.292,38.451z"/>
	<path fill-rule="evenodd" clip-rule="evenodd" d="M1142.551,135.511c5.15,5.395,10.259,10.743,15.459,16.19
		c-2.383,4.343-7.702,6.321-12.615,4.321c-3.61-1.47-6.604-3.801-9.231-6.653c-1.064-1.156-1.413-2.426-0.98-3.898
		C1136.396,141.343,1138.668,137.99,1142.551,135.511z"/>
	<path fill-rule="evenodd" clip-rule="evenodd" d="M934.521,135.503c5.242,5.453,10.364,10.78,15.539,16.164
		c-3.246,5.104-8.24,6.575-13.903,3.819c-3.028-1.474-5.598-3.552-7.909-5.994c-1.229-1.299-1.534-2.738-1.005-4.357
		C928.518,141.232,930.7,137.988,934.521,135.503z"/>
	<path fill-rule="evenodd" clip-rule="evenodd" fill="none" d="M479.974,138.298c-0.921-2.991-0.327-5.009,0.166-7.001
		c2.524-10.209,6.056-20.052,11.141-29.274c3.074-5.576,3.695-5.73,9.616-3.349c6.558,2.638,12.998,5.532,19.406,9.678
		C508.144,120.121,496.231,131.757,479.974,138.298z"/>
	<path fill-rule="evenodd" clip-rule="evenodd" fill="none" d="M831.072,94.536c1.521-6.988,3.679-13.685,6.048-20.317
		c2.715-7.599,5.585-15.131,9.45-22.239c1.194-2.196,2.465-4.351,4.219-6.159c0.979-1.01,2.063-2.363,3.582-1.759
		c1.536,0.611,1.325,2.336,1.275,3.724c-0.17,4.798-1.434,9.344-3.296,13.741c-4.06,9.586-10.087,17.959-16.2,26.278
		C834.486,90.069,832.766,92.293,831.072,94.536z"/>
	<path fill-rule="evenodd" clip-rule="evenodd" fill="none" d="M883.145,94.44c4.083-15.054,8.574-29.922,16.093-43.644
		c0.959-1.749,2.038-3.447,3.456-4.875c1.041-1.048,2.139-2.544,3.775-1.814c1.473,0.658,1.225,2.394,1.173,3.787
		c-0.144,3.854-1.004,7.567-2.34,11.179c-3.921,10.594-10.489,19.609-17.065,28.619C886.576,89.968,884.844,92.192,883.145,94.44z"
		/>
	<path fill-rule="evenodd" clip-rule="evenodd" fill="none" d="M297.962,112.049c1.978-6.054,4.015-11.677,7.542-16.591
		c3.031-4.221,5.337-4.203,8.655-0.176c0.211,0.257,0.408,0.527,0.6,0.799c4.3,6.068,3.392,9.419-3.451,12.314
		C307.121,110.168,302.763,111.369,297.962,112.049z"/>
	<path fill-rule="evenodd" clip-rule="evenodd" fill="none" d="M154.918,112.189c2.004-6.191,4.051-11.807,7.572-16.721
		c3.031-4.23,5.333-4.219,8.655-0.196c0.211,0.257,0.408,0.526,0.6,0.798c4.302,6.062,3.383,9.396-3.428,12.329
		c-2.6,1.12-5.303,1.946-8.053,2.611C158.667,111.396,157.054,111.721,154.918,112.189z"/>
	<path fill-rule="evenodd" clip-rule="evenodd" fill="none" d="M40.203,81.561c0.144,3.547-0.79,6.778-1.6,10.02
		c-4.076,16.32-9.054,32.335-16.513,47.478c-1.618,3.284-3.37,6.515-5.929,9.197c-1.044,1.096-2.188,2.173-3.911,1.544
		c-1.783-0.651-2.134-2.19-2.191-3.844c-0.16-4.593,1.221-8.887,2.76-13.105c5.646-15.475,13.741-29.704,22.417-43.628
		C36.847,86.64,38.545,84.113,40.203,81.561z"/>
	<path fill-rule="evenodd" clip-rule="evenodd" fill="none" d="M1294.444,163.886c0.572,2.848,0.163,5.172-0.953,7.395
		c-1.976,3.936-4.601,7.342-8.341,9.736c-3.604,2.308-7.33,1.477-9.759-2.026c-1.662-2.397-1.506-3.482,0.916-5.156
		c3.565-2.464,7.457-4.367,11.277-6.39C1289.773,166.286,1291.98,165.162,1294.444,163.886z"/>
	<path fill-rule="evenodd" clip-rule="evenodd" fill="none" d="M1081.018,92.029c1.047,4.235,2.997,7.874,5.533,11.038
		c2.724,3.398,2.958,7.037,1.918,10.814c-2.939,10.676-8.957,19.232-18.311,25.298c-2.034,1.319-4.274,2.189-6.744,2.421
		c-4.328,0.407-7.015-1.224-8.39-5.379c-1.632-4.928-1.035-9.891,0.142-14.79c2.241-9.339,6.32-17.699,13.563-24.233
		C1072.15,94.113,1076.108,92.131,1081.018,92.029z"/>
</g>
</svg>
